<?xml version="1.0" standalone="no"?>
<!DOCTYPE svg PUBLIC "-//W3C//DTD SVG 20010904//EN"
 "http://www.w3.org/TR/2001/REC-SVG-20010904/DTD/svg10.dtd">
<svg version="1.0" xmlns="http://www.w3.org/2000/svg"
 width="1024.000000pt" height="1024.000000pt" viewBox="0 0 1024.000000 1024.000000"
 preserveAspectRatio="xMidYMid meet">

<g transform="translate(0.000000,1024.000000) scale(0.100000,-0.100000)"
fill="#000000" stroke="none">
<path d="M4994 7030 c-471 -49 -868 -365 -1020 -812 -109 -320 -70 -699 102
-987 163 -275 422 -473 725 -555 412 -111 841 -3 1148 289 112 106 193 216
257 350 217 450 134 983 -211 1344 -261 274 -628 410 -1001 371z m-75 -985
c107 -185 198 -332 202 -328 9 9 228 384 324 556 l60 106 118 1 117 0 0 -548
0 -548 -120 -3 -120 -2 -2 338 -3 337 -119 -204 c-65 -113 -139 -240 -163
-282 l-45 -78 -54 0 -53 0 -57 98 c-31 53 -105 178 -163 277 l-106 180 -3
-326 -2 -327 -31 -6 c-17 -3 -71 -6 -120 -6 l-89 0 0 550 0 550 118 0 117 -1
194 -334z"/>
<path d="M2590 3690 l0 -470 105 0 105 0 2 275 3 275 130 -227 131 -228 54 0
54 0 59 105 c33 58 94 164 136 235 l76 130 3 -282 2 -283 105 0 105 0 -2 468
-3 467 -101 3 -100 3 -166 -291 -166 -291 -89 158 c-50 87 -123 218 -164 290
l-74 133 -102 0 -103 0 0 -470z"/>
<path d="M6460 4025 l0 -95 -55 0 -55 0 0 -80 0 -79 58 -3 57 -3 5 -201 5
-201 30 -48 c41 -67 101 -97 204 -103 77 -4 172 15 186 39 4 5 -4 41 -17 80
-20 62 -25 69 -43 63 -11 -3 -41 -9 -66 -11 -41 -4 -49 -2 -68 22 -20 26 -21
39 -21 196 l0 169 90 0 90 0 0 80 0 80 -90 0 -90 0 0 95 0 95 -110 0 -110 0 0
-95z"/>
<path d="M4070 3935 c-110 -31 -190 -99 -239 -204 -23 -49 -26 -69 -26 -156 0
-89 3 -106 28 -157 36 -73 119 -149 195 -180 47 -19 75 -22 162 -22 141 0 201
23 287 109 53 53 64 71 83 134 58 191 -24 381 -198 458 -73 32 -210 41 -292
18z m210 -186 c110 -62 115 -270 8 -334 -155 -91 -317 47 -264 227 16 55 52
99 96 117 44 17 119 13 160 -10z"/>
<path d="M5065 3941 c-53 -15 -80 -28 -113 -56 -18 -15 -33 -22 -33 -16 -1 6
-3 20 -4 31 -1 11 -3 25 -4 30 0 6 -42 10 -101 10 l-100 0 0 -360 0 -360 104
0 105 0 3 213 c3 194 5 215 25 252 51 96 214 102 257 10 11 -22 15 -86 18
-250 l4 -220 108 -3 107 -3 -3 263 c-3 227 -6 268 -22 302 -48 107 -126 158
-246 162 -41 2 -88 -1 -105 -5z"/>
<path d="M5832 3935 c-29 -8 -67 -22 -84 -31 -58 -30 -124 -102 -154 -167 -25
-54 -29 -74 -29 -157 0 -82 4 -103 26 -151 71 -152 226 -232 416 -215 89 7
176 42 221 89 l31 32 -55 57 -55 57 -36 -25 c-49 -33 -108 -47 -171 -41 -64 7
-109 32 -139 77 -42 62 -50 60 243 60 l267 0 -5 83 c-10 200 -140 331 -338
342 -58 4 -102 0 -138 -10z m198 -175 c38 -19 59 -47 74 -97 l7 -23 -165 0
c-163 0 -166 0 -166 22 0 30 46 87 84 104 46 20 120 17 166 -6z"/>
<path d="M7235 3944 c-11 -2 -45 -9 -75 -15 -59 -12 -160 -55 -160 -68 0 -5
15 -40 33 -80 32 -69 34 -70 55 -56 67 48 225 63 285 28 32 -19 64 -84 51
-104 -3 -5 -56 -9 -117 -9 -186 0 -285 -37 -326 -122 -68 -141 34 -292 205
-306 91 -7 147 5 204 43 l50 34 0 -35 0 -34 101 0 100 0 -3 268 c-3 237 -5
271 -22 302 -31 59 -86 109 -145 131 -53 20 -192 33 -236 23z m195 -454 c0
-79 -61 -130 -153 -130 -48 0 -62 4 -82 25 -42 41 -28 96 28 120 19 9 68 14
120 15 l87 0 0 -30z"/>
</g>
</svg>
